# xmcd
#
# Track frame offsets:
# 150
# 17430
# 31121
# 52625
# 76002
# 95349
# 112470
# 124969
# 141341
# 157067
# 168090
# 183118
# 200616
#
# Disc length: 2862 seconds
#
# Revision: 1
# Processed by: cddbd v1.5PL3 Copyright (c) Steve Scherf et al.
# Submitted via: Easy CD Ripper v2.27
#
DISCID=9f0b2c0d
DTITLE=Dixie Chicks - Fly
DYEAR=1999
DGENRE=Country
TTITLE0=Ready To Run - Dixie Chicks
TTITLE1=If I Fall You're Going Down - Dixie Chicks
TTITLE2=Cowboy Take Me Away - Dixie Chicks
TTITLE3=Cold Day In July - Dixie Chicks
TTITLE4=Goodbye Earl - Dixie Chicks
TTITLE5=Hello Mr. Heartache - Dixie Chicks
TTITLE6=Don't Waste Your Heart - Dixie Chicks
TTITLE7=Sin Wagon - Dixie Chicks
TTITLE8=Without You - Dixie Chicks
TTITLE9=Some Days You Gotta Dance - Dixie Chicks
TTITLE10=Hole In My Head - Dixie Chicks
TTITLE11=Heartbreak Town - Dixie Chicks
TTITLE12=Let Him Fly - Dixie Chicks
EXTD=
EXTT0=
EXTT1=
EXTT2=
EXTT3=
EXTT4=
EXTT5=
EXTT6=
EXTT7=
EXTT8=
EXTT9=
EXTT10=
EXTT11=
EXTT12=
PLAYORDER=
